PathFileType  4	(X/Y/Z) C:\Users\antoi\Documents\MyRepositories\mobilecap\ResultsAnalysis
DataRate	CameraRate	NumFrames	NumMarkers	Units	OrigDataRate	OrigDataStartFrame	OrigNumFrames
100.0	100.0	4	55	mm	100.0	226	601
Frame#	Time	r_knee			r_shank_antsup			r_ankle			r_calc			r_5meta			r_toe			L_knee			L_shank_antsup			L_ankle			L_calc			L_5meta			L_toe			r_mknee			r_mankle			L_mknee			L_mankle			r_sh2			r_sh3			r_sh4			L_sh2			L_sh3			r_thigh1			r_thigh2			r_thigh3			r_thigh4			r_thigh5			L_thigh1			L_thigh2			L_thigh3			L_thigh4			r.ASIS			r.PSIS			L.ASIS			L.PSIS			C7			R_Shoulder			L_Shoulder			R_Sternum			L_Sternum			R_humerus			R_elbow_med			R_elbow_lat			R_forearm			R_wrist_radius			R_wrist_ulna			L_humerus			L_elbow_med			L_elbow_lat			L_forearm			L_wrist_radius			L_wrist_ulna			R_HJC			L_HJC			R_HJC_reg			L_HJC_reg			
		X1	Y1	Z1	X2	Y2	Z2	X3	Y3	Z3	X4	Y4	Z4	X5	Y5	Z5	X6	Y6	Z6	X7	Y7	Z7	X8	Y8	Z8	X9	Y9	Z9	X10	Y10	Z10	X11	Y11	Z11	X12	Y12	Z12	X13	Y13	Z13	X14	Y14	Z14	X15	Y15	Z15	X16	Y16	Z16	X17	Y17	Z17	X18	Y18	Z18	X19	Y19	Z19	X20	Y20	Z20	X21	Y21	Z21	X22	Y22	Z22	X23	Y23	Z23	X24	Y24	Z24	X25	Y25	Z25	X26	Y26	Z26	X27	Y27	Z27	X28	Y28	Z28	X29	Y29	Z29	X30	Y30	Z30	X31	Y31	Z31	X32	Y32	Z32	X33	Y33	Z33	X34	Y34	Z34	X35	Y35	Z35	X36	Y36	Z36	X37	Y37	Z37	X38	Y38	Z38	X39	Y39	Z39	X40	Y40	Z40	X41	Y41	Z41	X42	Y42	Z42	X43	Y43	Z43	X44	Y44	Z44	X45	Y45	Z45	X46	Y46	Z46	X47	Y47	Z47	X48	Y48	Z48	X49	Y49	Z49	X50	Y50	Z50	X51	Y51	Z51	X52	Y52	Z52	X53	Y53	Z53	X54	Y54	Z54	X55	Y55	Z55	

226	2.25000000	-194.92025	547.57893	-439.55358	-169.10975	451.62939	-446.25039	-274.09781	122.66687	-468.25654	-356.34011	74.27376	-516.27164	-166.18021	47.69093	-415.46887	-104.20197	73.93109	-475.43517	-191.20602	548.52115	-778.52011	-197.35120	459.73440	-802.88417	-259.09200	125.53870	-752.77577	-342.22738	74.60871	-701.61865	-148.22910	50.46689	-784.48663	-90.03257	76.01022	-720.48896	-184.98242	534.58846	-573.46649	-239.70759	134.03203	-557.68969	-180.42319	541.85723	-642.06975	-237.86629	130.71414	-656.32038	-199.07439	344.68044	-420.94170	-230.68052	476.93134	-408.66555	-275.69889	370.90059	-402.91842	-286.97429	472.47394	-796.05676	-289.97427	350.38817	-793.00222	-96.77769	867.03162	-419.61385	-102.73414	756.43231	-424.80421	-161.05485	733.73805	-401.05272	-209.40689	867.98491	-417.17883	-209.38846	753.28150	-421.14429	-86.48825	831.59379	-784.63561	-92.93252	691.22643	-773.56502	-196.21333	834.19102	-801.18665	-205.72584	697.51021	-796.16058	-82.18290	1083.87174	-465.55815	-258.48792	1094.53946	-545.72270	-68.19230	1087.22324	-718.05768	-254.35086	1093.14745	-653.57132	-240.50127	1630.69164	-598.96230	-165.45738	1574.09146	-431.45803	-185.29501	1574.34538	-772.05541	-110.52380	1560.07756	-573.47238	-111.80987	1556.31024	-628.54050	-143.91240	1418.60415	-360.49078	-204.03839	1210.94677	-389.02536	-196.45278	1235.77652	-308.94185	-129.29629	1080.81164	-262.84206	-81.11608	995.54704	-257.10445	-124.93678	998.04591	-239.80136	-198.89080	1447.66275	-850.06085	-210.67858	1208.09403	-807.70723	-212.11408	1227.57254	-885.36378	-167.32110	1176.14745	-925.15747	-99.44035	1012.22286	-958.10464	-139.42335	1001.51933	-962.41902	-155.36442	965.96575	-491.99813	-149.76806	974.07943	-698.72405	-137.64363	1003.59120	-502.31170	-131.24610	1001.43865	-669.09494	
227	2.26000000	-194.92919	547.58189	-439.57717	-169.09901	451.63805	-446.25376	-274.08013	122.69793	-468.23518	-356.37187	74.23783	-516.21152	-166.23237	47.65428	-415.51049	-104.16782	73.95358	-475.43829	-191.21101	548.54674	-778.52132	-197.35050	459.74656	-802.88282	-259.09212	125.55317	-752.77420	-342.21275	74.63028	-701.62293	-148.22846	50.48243	-784.48377	-90.03370	75.96749	-720.39951	-184.93242	534.51091	-573.45988	-239.69539	134.02186	-557.66981	-180.42319	541.86272	-642.07378	-237.85874	130.69835	-656.32494	-198.97071	344.54473	-421.02721	-230.73233	476.90561	-408.68701	-275.83674	370.56056	-402.83653	-286.97412	472.48385	-796.05183	-289.97315	350.39386	-793.00096	-96.78923	867.03385	-419.60746	-102.72059	756.42314	-424.83076	-161.07410	733.75391	-401.06080	-209.33849	868.04800	-417.13286	-209.37321	753.27741	-421.13463	-86.47939	831.59484	-784.63281	-92.93800	691.25344	-773.57695	-196.20550	834.20818	-801.18550	-205.72763	697.52244	-796.15337	-82.18440	1083.86363	-465.55657	-258.49389	1094.56334	-545.72793	-68.18155	1087.23900	-718.05455	-254.35738	1093.21712	-653.46509	-240.48753	1630.68364	-598.92107	-165.44570	1574.07649	-431.48291	-185.27206	1574.35816	-772.05267	-110.94820	1560.33131	-574.11841	-111.84491	1556.45265	-628.75542	-143.90856	1418.56555	-360.51362	-204.12734	1210.92886	-389.14266	-196.46568	1235.73978	-308.98804	-129.33264	1080.78570	-262.89247	-81.12069	995.49387	-257.10529	-124.96159	998.03709	-239.82967	-198.89259	1447.65843	-850.05297	-210.68351	1208.09390	-807.71489	-212.11841	1227.57161	-885.39166	-167.33253	1176.16596	-925.16577	-99.47188	1012.23001	-958.11940	-139.49602	1001.57065	-962.51793	-155.38351	965.97184	-491.99281	-149.80551	974.11778	-698.71795	-137.64404	1003.55799	-502.34565	-131.24066	1001.47430	-669.12922	
228	2.27000000	-194.92206	547.62969	-439.58345	-169.07695	451.64322	-446.26411	-274.08626	122.69104	-468.23310	-356.42109	74.22697	-516.16736	-166.27299	47.63909	-415.54011	-104.12944	74.01010	-475.43775	-191.22367	548.57653	-778.52388	-197.35872	459.75256	-802.89558	-259.09235	125.57308	-752.76848	-342.19349	74.66121	-701.63679	-148.22435	50.49890	-784.48121	-90.10478	75.88174	-720.28805	-184.88043	534.43261	-573.45578	-239.71485	134.04175	-557.68818	-180.42153	541.86428	-642.07558	-237.84851	130.70293	-656.32665	-198.89174	344.53658	-421.06266	-230.68247	476.95107	-408.64668	-276.09821	370.21657	-402.72949	-286.97083	472.48663	-796.04184	-289.96917	350.40497	-793.01023	-96.84505	867.04548	-419.62871	-102.67993	756.46220	-424.85516	-161.11685	733.81023	-401.07579	-209.33920	868.08078	-417.12218	-209.37148	753.29097	-421.14256	-86.46822	831.59506	-784.62844	-92.93378	691.27449	-773.57664	-196.19450	834.22389	-801.18596	-205.71655	697.54976	-796.16030	-82.17226	1083.86418	-465.56424	-258.46836	1094.57456	-545.71084	-68.17058	1087.25844	-718.05192	-254.45261	1093.32944	-653.23203	-240.44481	1630.68988	-598.84626	-165.49691	1574.05650	-431.50556	-185.24787	1574.36755	-772.04141	-110.88813	1560.31510	-574.05416	-111.83722	1556.47290	-628.77119	-143.89644	1418.53623	-360.53556	-204.16046	1210.83385	-389.21786	-196.48142	1235.69473	-309.07534	-129.36991	1080.74997	-262.97053	-81.12981	995.48979	-257.13874	-125.01256	998.03938	-239.91314	-198.88649	1447.67662	-850.06443	-210.68479	1208.09769	-807.71637	-212.13417	1227.59051	-885.42919	-167.35334	1176.18948	-925.17648	-99.49720	1012.24821	-958.12475	-139.55529	1001.63488	-962.61485	-155.38587	965.98093	-491.96444	-149.89173	974.17307	-698.69000	-137.52393	1003.47196	-502.36075	-131.29483	1001.54086	-669.14602	
229	2.28000000	-194.93228	547.65490	-439.59360	-169.08931	451.64776	-446.28414	-274.08083	122.70045	-468.24797	-356.42991	74.27719	-516.20735	-166.26350	47.66066	-415.53077	-104.11618	74.05104	-475.43164	-191.23391	548.60199	-778.52691	-197.36196	459.76852	-802.88986	-259.08981	125.58746	-752.75020	-342.19817	74.67257	-701.62982	-148.21918	50.51213	-784.47717	-90.14450	75.86826	-720.24127	-184.88118	534.44321	-573.45775	-239.73525	134.06974	-557.71498	-180.42069	541.86110	-642.07360	-237.84468	130.72498	-656.32588	-198.92027	344.65601	-421.01798	-230.59314	477.07400	-408.61520	-276.22328	370.14918	-402.69505	-286.96889	472.48850	-796.03513	-289.97849	350.44657	-793.04458	-96.85071	867.04257	-419.63500	-102.64109	756.52479	-424.87170	-161.07943	733.81220	-401.06991	-209.40437	868.01540	-417.14841	-209.40806	753.31807	-421.18661	-86.45840	831.59435	-784.62394	-92.92053	691.28358	-773.56762	-196.18573	834.23132	-801.18526	-205.69918	697.57937	-796.15357	-82.15727	1083.87378	-465.57658	-258.44386	1094.58647	-545.69129	-68.15886	1087.28152	-718.04034	-254.52742	1093.41961	-653.08403	-240.38554	1630.71687	-598.76388	-165.51635	1574.04346	-431.49235	-185.21635	1574.37037	-772.01806	-110.80925	1560.27425	-573.95218	-111.79917	1556.44133	-628.68756	-143.90575	1418.50548	-360.56044	-204.10542	1210.71327	-389.25354	-196.49809	1235.66494	-309.13978	-129.39604	1080.70728	-263.01920	-81.17390	995.49358	-257.18642	-125.06909	998.02177	-240.03620	-198.85812	1447.72473	-850.11417	-210.68431	1208.10387	-807.71179	-212.14819	1227.63304	-885.42128	-167.36992	1176.20750	-925.18062	-99.51506	1012.27138	-958.12655	-139.57895	1001.67676	-962.68974	-155.38383	965.99482	-491.94718	-149.94884	974.22168	-698.67294	-137.41753	1003.41611	-502.37236	-131.33551	1001.60428	-669.14855	
